<?xml version="1.0" encoding="UTF-8"?>
<svg id="Layer_1" data-name="Layer 1" xmlns="http://www.w3.org/2000/svg" viewBox="0 0 47.6 35.41">
  <defs>
    <style>
      .cls-1 {
        fill: #231f20;
      }
    </style>
  </defs>
  <path class="cls-1" d="m0,1.01C1.98.59,3.97.3,5.95,0h5.95s11.9,0,11.9,0c3.92,0,14.06,0,17.85,0,1.98.3,3.97.6,5.95,1-1.98.4-3.97.7-5.95,1-3.75,0-13.97,0-17.85,0,0,0-11.9,0-11.9,0h-5.95C3.97,1.72,1.98,1.43,0,1.01H0Z"/>
  <path class="cls-1" d="m0,17.71c1.98-.42,3.97-.71,5.95-1.01h5.95s11.9,0,11.9,0c3.92,0,14.06,0,17.85,0,1.98.3,3.97.6,5.95,1-1.98.4-3.97.7-5.95,1-3.75,0-13.97,0-17.85,0,0,0-11.9,0-11.9,0h-5.95C3.97,18.42,1.98,18.12,0,17.71H0Z"/>
  <path class="cls-1" d="m0,34.4c1.98-.42,3.97-.71,5.95-1.01h5.95s11.9,0,11.9,0c3.92,0,14.06,0,17.85,0,1.98.3,3.97.6,5.95,1-1.98.4-3.97.7-5.95,1-3.75,0-13.97,0-17.85,0,0,0-11.9,0-11.9,0,0,0-5.95.01-5.95.01C3.97,35.12,1.98,34.82,0,34.4H0Z"/>
</svg><?xml version="1.0" encoding="UTF-8"?>
<svg id="Layer_1" data-name="Layer 1" xmlns="http://www.w3.org/2000/svg" viewBox="0 0 47.6 35.41">
  <defs>
    <style>
      .cls-1 {
        fill: #231f20;
      }
    </style>
  </defs>
  <path class="cls-1" d="m0,1.01C1.98.59,3.97.3,5.95,0h5.95s11.9,0,11.9,0c3.92,0,14.06,0,17.85,0,1.98.3,3.97.6,5.95,1-1.98.4-3.97.7-5.95,1-3.75,0-13.97,0-17.85,0,0,0-11.9,0-11.9,0h-5.95C3.97,1.72,1.98,1.43,0,1.01H0Z"/>
  <path class="cls-1" d="m0,17.71c1.98-.42,3.97-.71,5.95-1.01h5.95s11.9,0,11.9,0c3.92,0,14.06,0,17.85,0,1.98.3,3.97.6,5.95,1-1.98.4-3.97.7-5.95,1-3.75,0-13.97,0-17.85,0,0,0-11.9,0-11.9,0h-5.95C3.97,18.42,1.98,18.12,0,17.71H0Z"/>
  <path class="cls-1" d="m0,34.4c1.98-.42,3.97-.71,5.95-1.01h5.95s11.9,0,11.9,0c3.92,0,14.06,0,17.85,0,1.98.3,3.97.6,5.95,1-1.98.4-3.97.7-5.95,1-3.75,0-13.97,0-17.85,0,0,0-11.9,0-11.9,0,0,0-5.95.01-5.95.01C3.97,35.12,1.98,34.82,0,34.4H0Z"/>
</svg>